<?xml version="1.0" encoding="utf-8"?>
<!-- Generator: Adobe Illustrator 18.0.0, SVG Export Plug-In . SVG Version: 6.00 Build 0)  -->
<!DOCTYPE svg PUBLIC "-//W3C//DTD SVG 1.1//EN" "http://www.w3.org/Graphics/SVG/1.1/DTD/svg11.dtd" [
	<!ENTITY ns_extend "http://ns.adobe.com/Extensibility/1.0/">
	<!ENTITY ns_ai "http://ns.adobe.com/AdobeIllustrator/10.0/">
	<!ENTITY ns_graphs "http://ns.adobe.com/Graphs/1.0/">
	<!ENTITY ns_vars "http://ns.adobe.com/Variables/1.0/">
	<!ENTITY ns_imrep "http://ns.adobe.com/ImageReplacement/1.0/">
	<!ENTITY ns_sfw "http://ns.adobe.com/SaveForWeb/1.0/">
	<!ENTITY ns_custom "http://ns.adobe.com/GenericCustomNamespace/1.0/">
	<!ENTITY ns_adobe_xpath "http://ns.adobe.com/XPath/1.0/">
]>
<svg version="1.1" id="Layer_1" xmlns:x="&ns_extend;" xmlns:i="&ns_ai;" xmlns:graph="&ns_graphs;"
	 xmlns="http://www.w3.org/2000/svg" xmlns:xlink="http://www.w3.org/1999/xlink" x="0px" y="0px" viewBox="0 0 400 400"
	 enable-background="new 0 0 400 400" xml:space="preserve">
<metadata>
	<sfw  xmlns="&ns_sfw;">
		<slices></slices>
		<sliceSourceBounds  height="401" width="401" bottomLeftOrigin="true" x="-0.5" y="-0.5"></sliceSourceBounds>
	</sfw>
</metadata>
<circle opacity="0.75" stroke="#000000" stroke-miterlimit="10" cx="200" cy="200" r="200"/>
<path fill="#FFFFFF" d="M151.4,284.3L72,203c-3.8-3.9-3.7-10.2,0.2-14L96,165.9c3.9-3.8,10.2-3.7,14,0.2l79.3,81.3
	c3.8,3.9,3.7,10.2-0.2,14l-23.8,23.1C161.4,288.3,155.2,288.2,151.4,284.3z"/>
<path fill="#FFFFFF" d="M337.6,135.6L176.7,292.4c-4.9,4.7-12.7,4.6-17.4-0.2l-19.9-20.4c-4.7-4.9-4.6-12.7,0.2-17.4L300.5,97.5
	c4.9-4.7,12.7-4.6,17.4,0.2l19.9,20.4C342.6,123.1,342.5,130.9,337.6,135.6z"/>
</svg>
