<?xml version="1.0" standalone="no"?><!DOCTYPE svg PUBLIC "-//W3C//DTD SVG 1.1//EN" "http://www.w3.org/Graphics/SVG/1.1/DTD/svg11.dtd"><svg t="1524451913521" class="icon" style="" viewBox="0 0 1024 1024" version="1.1" xmlns="http://www.w3.org/2000/svg" p-id="2073" xmlns:xlink="http://www.w3.org/1999/xlink" width="200" height="200"><defs><style type="text/css"></style></defs><path d="M460.1856 12.71808c-55.61344 5.65248-117.3504 23.56224-169.18528 49.24416-102.26688 50.65728-178.3808 126.53568-228.80256 228.80256-121.82528 245.53472-22.14912 544.09216 222.91456 668.50816 247.18336 125.5936 548.5568 26.85952 674.1504-220.55936 98.49856-193.6896 61.0304-427.91936-92.60032-581.31456C760.39168 50.8928 610.51904-2.36544 460.1856 12.71808z m197.46816 201.23648c14.848 8.00768 22.85568 16.73216 30.40256 33.2288l5.41696 12.24704-0.47104 266.97728-0.70656 267.2128-5.18144 9.4208c-6.83008 12.72832-20.50048 25.91744-33.46432 32.28672l-10.83392 5.41696H381.25568l-10.84416-5.41696c-14.848-7.30112-27.56608-20.02944-34.17088-34.4064l-5.65248-12.02176V523.81696c0-261.3248 0.23552-265.32864 4.94592-275.69152 6.59456-14.37696 14.61248-24.50432 24.73984-30.86336 18.85184-11.55072 17.43872-11.55072 155.27936-10.84416l129.59744 0.47104 12.50304 7.0656z" p-id="2074" fill="#515151"></path><path d="M402.46272 272.15872c-2.59072 1.41312-5.41696 3.76832-6.35904 5.18144-0.94208 1.41312-1.88416 98.73408-1.88416 216.30976v213.95456H629.8624V493.64992c0-117.58592-0.94208-214.89664-1.88416-216.30976-4.94592-7.53664-12.4928-8.00768-116.40832-8.00768-73.29792 0.23552-105.80992 0.94208-109.1072 2.82624zM493.17888 745.7792c-28.75392 19.79392-15.79008 64.1024 18.85184 64.1024 18.3808 0 32.512-13.19936 34.64192-31.81568 2.11968-20.26496-13.90592-37.46816-34.64192-37.46816-7.54688 0-13.43488 1.64864-18.85184 5.18144z" p-id="2075" fill="#515151"></path></svg>